<svg xmlns="http://www.w3.org/2000/svg" width="512" height="512" viewBox="0 0 512 512" role="img" aria-label="HLOVET logo">
  <defs>
    <linearGradient id="tk-bg" x1="72" y1="44" x2="440" y2="468" gradientUnits="userSpaceOnUse">
      <stop offset="0" stop-color="#0f172a" />
      <stop offset="0.55" stop-color="#12324a" />
      <stop offset="1" stop-color="#0e7490" />
    </linearGradient>
    <linearGradient id="tk-accent" x1="90" y1="404" x2="422" y2="404" gradientUnits="userSpaceOnUse">
      <stop offset="0" stop-color="#22d3ee" />
      <stop offset="1" stop-color="#a7f3d0" />
    </linearGradient>
    <filter id="tk-shadow" x="-20%" y="-20%" width="140%" height="140%" color-interpolation-filters="sRGB">
      <feDropShadow dx="0" dy="16" stdDeviation="18" flood-color="#020617" flood-opacity="0.28" />
    </filter>
  </defs>
  <rect width="512" height="512" rx="108" fill="url(#tk-bg)" />
  <path d="M94 96h324c22 0 40 18 40 40v210c0 22-18 40-40 40H94c-22 0-40-18-40-40V136c0-22 18-40 40-40Z" fill="#ffffff" opacity="0.055" />
  <g filter="url(#tk-shadow)">
    <rect x="82" y="126" width="178" height="50" rx="18" fill="#f8fafc" />
    <rect x="146" y="126" width="50" height="264" rx="18" fill="#f8fafc" />
    <rect x="284" y="126" width="50" height="264" rx="18" fill="#f8fafc" />
    <path d="M334 252 420 126h58L380 258l102 132h-62L334 274Z" fill="#f8fafc" />
  </g>
  <rect x="88" y="408" width="336" height="20" rx="10" fill="url(#tk-accent)" />
  <circle cx="424" cy="408" r="10" fill="#f8fafc" opacity="0.92" />
</svg>
